####
#
# OBJ File Generated by Meshlab
#
####
# Object 3proxph_skin.obj
#
# Vertices: 40
# Faces: 76
#
####
vn 0.016644 0.484183 -0.874808
v 0.000825 -0.007402 -0.004384335154826957
vn 0.031393 -0.666879 -0.744505
v 0.001341 -0.047731 -0.00022586520947176684
vn -0.236291 0.484633 -0.842198
v -0.001329 -0.007399 -0.004132058287795993
vn -0.221543 -0.666427 -0.711894
v -0.000813 -0.047728 2.641165755919854e-05
vn -0.466825 0.493983 -0.733522
v -0.003291 -0.007319 -0.0032887067395264116
vn -0.452077 -0.657080 -0.603218
v -0.002775 -0.047648 0.0008688524590163934
vn -0.652386 0.511314 -0.559420
v -0.004871 -0.007171 -0.001938979963570127
vn -0.637637 -0.639749 -0.429116
v -0.004354 -0.047501 0.002218579234972677
vn -0.774806 0.534930 -0.336935
v -0.005913 -0.00697 -0.00021493624772313293
vn -0.760057 -0.616130 -0.206632
v -0.005397 -0.0473 0.003943533697632058
vn -0.822101 0.562522 -0.087853
v -0.006315 -0.006735 0.0017167577413479051
vn -0.807353 -0.588540 0.042451
v -0.005799 -0.047065 0.0058752276867030965
vn -0.789650 0.591385 0.163451
v -0.00604 -0.00649 0.00366575591985428
vn -0.774901 -0.559675 0.293755
v -0.005523 -0.046819 0.00782422586520947
vn -0.680621 0.618700 0.392384
v -0.005111 -0.006257 0.0054408014571948994
vn -0.665872 -0.532364 0.522688
v -0.004594 -0.046586 0.009598360655737704
vn -0.505688 0.641787 0.576531
v -0.003622 -0.006061 0.0068679417122040065
vn -0.490939 -0.509276 0.706835
v -0.003105 -0.04639 0.011025500910746812
vn -0.281977 0.658387 0.697864
v -0.001718 -0.005919 0.007808743169398906
vn -0.267229 -0.492673 0.828168
v -0.001201 -0.046248 0.011967213114754098
vn -0.031393 0.666879 0.744505
v 0.000416 -0.005847 0.00817030965391621
vn -0.016644 -0.484183 0.874808
v 0.000932 -0.046176 0.012327868852459015
vn 0.221543 0.666427 0.711894
v 0.00257 -0.005851 0.007918032786885246
vn 0.236291 -0.484633 0.842198
v 0.003086 -0.04618 0.01207559198542805
vn 0.452077 0.657080 0.603218
v 0.004532 -0.00593 0.007074681238615664
vn 0.466825 -0.493983 0.733522
v 0.005048 -0.04626 0.011233151183970854
vn 0.637637 0.639749 0.429116
v 0.006111 -0.006078 0.00572495446265938
vn 0.652386 -0.511314 0.559420
v 0.006628 -0.046407 0.009883424408014572
vn 0.760057 0.616130 0.206632
v 0.007154 -0.006279 0.004000910746812386
vn 0.774806 -0.534930 0.336935
v 0.00767 -0.046608 0.008158469945355191
vn 0.807353 0.588540 -0.042451
v 0.007556 -0.006514 0.002069216757741348
vn 0.822101 -0.562522 0.087853
v 0.008072 -0.046843 0.006226775956284153
vn 0.774901 0.559675 -0.293755
v 0.00728 -0.00676 0.00012021857923497268
vn 0.789650 -0.591385 -0.163451
v 0.007797 -0.047089 0.004277777777777777
vn 0.665872 0.532364 -0.522688
v 0.006351 -0.006992 -0.0016548269581056466
vn 0.680621 -0.618700 -0.392384
v 0.006868 -0.047321 0.0025036429872495446
vn 0.490939 0.509276 -0.706835
v 0.004862 -0.007189 -0.003081967213114754
vn 0.505688 -0.641787 -0.576531
v 0.005379 -0.047518 0.0010755919854280509
vn 0.267229 0.492673 -0.828168
v 0.002958 -0.00733 -0.004022768670309654
vn 0.281977 -0.658387 -0.697864
v 0.003475 -0.047659 0.00013479052823315118
# 40 vertices, 0 vertices normals

f 1//1 2//2 4//4
f 1//1 4//4 3//3
f 3//3 4//4 6//6
f 3//3 6//6 5//5
f 5//5 6//6 8//8
f 5//5 8//8 7//7
f 7//7 8//8 10//10
f 7//7 10//10 9//9
f 9//9 10//10 12//12
f 9//9 12//12 11//11
f 11//11 12//12 14//14
f 11//11 14//14 13//13
f 13//13 14//14 16//16
f 13//13 16//16 15//15
f 15//15 16//16 18//18
f 15//15 18//18 17//17
f 17//17 18//18 20//20
f 17//17 20//20 19//19
f 19//19 20//20 22//22
f 19//19 22//22 21//21
f 21//21 22//22 24//24
f 21//21 24//24 23//23
f 23//23 24//24 26//26
f 23//23 26//26 25//25
f 25//25 26//26 28//28
f 25//25 28//28 27//27
f 27//27 28//28 30//30
f 27//27 30//30 29//29
f 29//29 30//30 32//32
f 29//29 32//32 31//31
f 31//31 32//32 34//34
f 31//31 34//34 33//33
f 33//33 34//34 36//36
f 33//33 36//36 35//35
f 35//35 36//36 38//38
f 35//35 38//38 37//37
f 37//37 38//38 40//40
f 37//37 40//40 39//39
f 39//39 40//40 2//2
f 39//39 2//2 1//1
f 1//1 3//3 5//5
f 1//1 5//5 7//7
f 1//1 7//7 9//9
f 1//1 9//9 11//11
f 1//1 11//11 13//13
f 1//1 13//13 15//15
f 1//1 15//15 17//17
f 1//1 17//17 19//19
f 1//1 19//19 21//21
f 1//1 21//21 23//23
f 1//1 23//23 25//25
f 1//1 25//25 27//27
f 1//1 27//27 29//29
f 1//1 29//29 31//31
f 1//1 31//31 33//33
f 1//1 33//33 35//35
f 1//1 35//35 37//37
f 1//1 37//37 39//39
f 40//40 38//38 36//36
f 40//40 36//36 34//34
f 40//40 34//34 32//32
f 40//40 32//32 30//30
f 40//40 30//30 28//28
f 40//40 28//28 26//26
f 40//40 26//26 24//24
f 40//40 24//24 22//22
f 40//40 22//22 20//20
f 40//40 20//20 18//18
f 40//40 18//18 16//16
f 40//40 16//16 14//14
f 40//40 14//14 12//12
f 40//40 12//12 10//10
f 40//40 10//10 8//8
f 40//40 8//8 6//6
f 40//40 6//6 4//4
f 40//40 4//4 2//2
# 76 faces, 0 coords texture

# End of File
