####
#
# OBJ File Generated by Meshlab
#
####
# Object 5distph_skin.obj
#
# Vertices: 40
# Faces: 76
#
####
vn -0.122514 -0.493669 -0.860977
v -0.006238 -0.016332 -0.001514426460239268
vn 0.163200 0.237755 -0.957517
v -0.000994 -0.002909 -0.002761435608726249
vn 0.141066 -0.588108 -0.796385
v -0.005063 -0.016753 -0.0013117522871217452
vn 0.426782 0.143321 -0.892925
v 0.000181 -0.00333 -0.002558057705840957
vn 0.376867 -0.660775 -0.649113
v -0.00401 -0.017078 -0.0008494018296973961
vn 0.662579 0.070646 -0.745653
v 0.001233 -0.003654 -0.002095707248416608
vn 0.561790 -0.704562 -0.433571
v -0.003187 -0.017273 -0.00017311752287121746
vn 0.847503 0.026859 -0.530110
v 0.002057 -0.003849 -0.0014201266713581983
vn 0.677732 -0.715182 -0.170862
v -0.002669 -0.01732 0.0006516537649542575
vn 0.963448 0.016247 -0.267403
v 0.002574 -0.003896 -0.0005946516537649543
vn 0.713352 -0.691589 0.113286
v -0.00251 -0.017215 0.0015432793807178043
vn 0.999066 0.039835 0.016746
v 0.002734 -0.003791 0.00029627023223082334
vn 0.665160 -0.636102 0.391071
v -0.002725 -0.016968 0.002414496833216045
vn 0.950876 0.095327 0.294530
v 0.002518 -0.003544 0.001167487684729064
vn 0.537876 -0.554141 0.635309
v -0.003293 -0.016602 0.0031815622800844476
vn 0.823589 0.177281 0.538770
v 0.00195 -0.003178 0.0019352568613652356
vn 0.343951 -0.453736 0.822083
v -0.004157 -0.016155 0.0037670654468684025
vn 0.629664 0.277685 0.725544
v 0.001087 -0.002731 0.0025200562983814213
vn 0.102372 -0.344720 0.933107
v -0.005235 -0.015668 0.004115411681914145
vn 0.388088 0.386710 0.836566
v 8e-06 -0.002244 0.002869106263194933
vn -0.163200 -0.237755 0.957517
v -0.006419 -0.015191 0.004192821956368754
vn 0.122514 0.493669 0.860977
v -0.001176 -0.001767 0.002945812807881773
vn -0.426782 -0.143321 0.892925
v -0.007594 -0.01477 0.003989444053483462
vn -0.141066 0.588108 0.796385
v -0.00235 -0.001347 0.0027431386347642503
vn -0.662579 -0.070646 0.745653
v -0.008647 -0.014446 0.0035270935960591133
vn -0.376867 0.660775 0.649113
v -0.003403 -0.001022 0.002280788177339901
vn -0.847503 -0.026859 0.530110
v -0.00947 -0.014251 0.0028515130190007038
vn -0.561790 0.704562 0.433571
v -0.004227 -0.000827 0.0016052076002814918
vn -0.963448 -0.016247 0.267403
v -0.009988 -0.014204 0.0020267417311752287
vn -0.677732 0.715182 0.170862
v -0.004744 -0.00078 0.0007797325826882477
vn -0.999066 -0.039835 -0.016746
v -0.010147 -0.014308 0.001135116115411682
vn -0.713352 0.691589 -0.113286
v -0.004903 -0.000885 -0.00011189303307529907
vn -0.950876 -0.095327 -0.294530
v -0.009932 -0.014556 0.00026389866291344125
vn -0.665160 0.636102 -0.391071
v -0.004688 -0.001132 -0.0009831104855735396
vn -0.823589 -0.177281 -0.538770
v -0.009364 -0.014922 -0.0005038705137227304
vn -0.537876 0.554141 -0.635309
v -0.00412 -0.001498 -0.0017501759324419423
vn -0.629664 -0.277685 -0.725544
v -0.0085 -0.015369 -0.0010886699507389162
vn -0.343951 0.453736 -0.822083
v -0.003256 -0.001945 -0.0023356790992258973
vn -0.388088 -0.386710 -0.836566
v -0.007421 -0.015856 -0.001437719915552428
vn -0.102372 0.344720 -0.933107
v -0.002178 -0.002432 -0.0026840253342716395
# 40 vertices, 0 vertices normals

f 1//1 2//2 4//4
f 1//1 4//4 3//3
f 3//3 4//4 6//6
f 3//3 6//6 5//5
f 5//5 6//6 8//8
f 5//5 8//8 7//7
f 7//7 8//8 10//10
f 7//7 10//10 9//9
f 9//9 10//10 12//12
f 9//9 12//12 11//11
f 11//11 12//12 14//14
f 11//11 14//14 13//13
f 13//13 14//14 16//16
f 13//13 16//16 15//15
f 15//15 16//16 18//18
f 15//15 18//18 17//17
f 17//17 18//18 20//20
f 17//17 20//20 19//19
f 19//19 20//20 22//22
f 19//19 22//22 21//21
f 21//21 22//22 24//24
f 21//21 24//24 23//23
f 23//23 24//24 26//26
f 23//23 26//26 25//25
f 25//25 26//26 28//28
f 25//25 28//28 27//27
f 27//27 28//28 30//30
f 27//27 30//30 29//29
f 29//29 30//30 32//32
f 29//29 32//32 31//31
f 31//31 32//32 34//34
f 31//31 34//34 33//33
f 33//33 34//34 36//36
f 33//33 36//36 35//35
f 35//35 36//36 38//38
f 35//35 38//38 37//37
f 37//37 38//38 40//40
f 37//37 40//40 39//39
f 39//39 40//40 2//2
f 39//39 2//2 1//1
f 1//1 3//3 5//5
f 1//1 5//5 7//7
f 1//1 7//7 9//9
f 1//1 9//9 11//11
f 1//1 11//11 13//13
f 1//1 13//13 15//15
f 1//1 15//15 17//17
f 1//1 17//17 19//19
f 1//1 19//19 21//21
f 1//1 21//21 23//23
f 1//1 23//23 25//25
f 1//1 25//25 27//27
f 1//1 27//27 29//29
f 1//1 29//29 31//31
f 1//1 31//31 33//33
f 1//1 33//33 35//35
f 1//1 35//35 37//37
f 1//1 37//37 39//39
f 40//40 38//38 36//36
f 40//40 36//36 34//34
f 40//40 34//34 32//32
f 40//40 32//32 30//30
f 40//40 30//30 28//28
f 40//40 28//28 26//26
f 40//40 26//26 24//24
f 40//40 24//24 22//22
f 40//40 22//22 20//20
f 40//40 20//20 18//18
f 40//40 18//18 16//16
f 40//40 16//16 14//14
f 40//40 14//14 12//12
f 40//40 12//12 10//10
f 40//40 10//10 8//8
f 40//40 8//8 6//6
f 40//40 6//6 4//4
f 40//40 4//4 2//2
# 76 faces, 0 coords texture

# End of File
