####
#
# OBJ File Generated by Meshlab
#
####
# Object 5midph_skin.obj
#
# Vertices: 40
# Faces: 76
#
####
vn 0.112966 0.275361 -0.954680
v -0.002109 -0.004503 -0.004560382276281494
vn -0.183097 -0.478038 -0.859043
v -0.008978 -0.021983 -0.00263249348392702
vn -0.148003 0.383381 -0.911654
v -0.00358 -0.003894 -0.0043501303214596
vn -0.444063 -0.370023 -0.816021
v -0.010449 -0.021374 -0.002422241529105126
vn -0.380009 0.490743 -0.784069
v -0.004888 -0.003289 -0.0037254561251086012
vn -0.676072 -0.262656 -0.688432
v -0.011757 -0.020769 -0.001797567332754127
vn -0.560317 0.586942 -0.584418
v -0.005905 -0.002747 -0.0027471763683753255
vn -0.856379 -0.166456 -0.488781
v -0.012774 -0.020227 -0.0008192875760208515
vn -0.671292 0.662565 -0.332226
v -0.00653 -0.00232 -0.0015117289313640312
vn -0.967355 -0.090832 -0.236589
v -0.013399 -0.0198 0.0004161598609904431
vn -0.702059 0.710201 -0.052216
v -0.006704 -0.002052 -0.00014074717636837532
vn -0.998122 -0.043198 0.043421
v -0.013573 -0.019532 0.0017871416159860988
vn -0.649622 0.725193 0.228225
v -0.006408 -0.001967 0.0012337098175499565
vn -0.945684 -0.028204 0.323862
v -0.013277 -0.019447 0.0031615986099044306
vn -0.519095 0.706073 0.481665
v -0.005672 -0.002075 0.0024743701129452647
vn -0.815158 -0.047326 0.577302
v -0.012541 -0.019555 0.00440225890529974
vn -0.323273 0.654712 0.683262
v -0.004568 -0.002364 0.003462206776715899
vn -0.619335 -0.098687 0.778899
v -0.011437 -0.019845 0.005390095569070373
vn -0.081303 0.576131 0.813303
v -0.003204 -0.002807 0.004099044309296264
vn -0.377372 -0.177270 0.908937
v -0.010073 -0.020288 0.006026933101650738
vn 0.183097 0.478038 0.859043
v -0.001714 -0.003361 0.004323197219808862
vn -0.112966 -0.275361 0.954680
v -0.008583 -0.020841 0.006251086012163336
vn 0.444063 0.370023 0.816021
v -0.000242 -0.00397 0.004112076455256299
vn 0.148001 -0.383373 0.911658
v -0.007111 -0.02145 0.006039965247610773
vn 0.676072 0.262656 0.688432
v 0.001066 -0.004575 0.0034874022589052997
vn 0.380009 -0.490743 0.784069
v -0.005803 -0.022055 0.005415291051259774
vn 0.856379 0.166456 0.488781
v 0.002082 -0.005117 0.0025091225021720244
vn 0.560317 -0.586942 0.584418
v -0.004787 -0.022597 0.004437011294526499
vn 0.967355 0.090832 0.236589
v 0.002708 -0.005543 0.0012745438748913989
vn 0.671292 -0.662565 0.332226
v -0.004161 -0.023023 0.003202432667245873
vn 0.998122 0.043198 -0.043421
v 0.002881 -0.005812 -9.730668983492615e-05
vn 0.702059 -0.710201 0.052216
v -0.003988 -0.023292 0.001830582102519548
vn 0.945684 0.028204 -0.323862
v 0.002585 -0.005896 -0.001470894874022589
vn 0.649622 -0.725193 -0.228225
v -0.004284 -0.023377 0.0004569939183318853
vn 0.815158 0.047326 -0.577302
v 0.00185 -0.005789 -0.0027124239791485667
vn 0.519095 -0.706073 -0.481665
v -0.005019 -0.023269 -0.0007845351867940921
vn 0.619335 0.098687 -0.778899
v 0.000746 -0.005499 -0.0036993918331885314
vn 0.323273 -0.654712 -0.683262
v -0.006123 -0.022979 -0.0017715030408340573
vn 0.377365 0.177265 -0.908940
v -0.000618 -0.005056 -0.0043362293657688965
vn 0.081303 -0.576131 -0.813303
v -0.007487 -0.022536 -0.0024083405734144224
# 40 vertices, 0 vertices normals

f 1//1 2//2 4//4
f 1//1 4//4 3//3
f 3//3 4//4 6//6
f 3//3 6//6 5//5
f 5//5 6//6 8//8
f 5//5 8//8 7//7
f 7//7 8//8 10//10
f 7//7 10//10 9//9
f 9//9 10//10 12//12
f 9//9 12//12 11//11
f 11//11 12//12 14//14
f 11//11 14//14 13//13
f 13//13 14//14 16//16
f 13//13 16//16 15//15
f 15//15 16//16 18//18
f 15//15 18//18 17//17
f 17//17 18//18 20//20
f 17//17 20//20 19//19
f 19//19 20//20 22//22
f 19//19 22//22 21//21
f 21//21 22//22 24//24
f 21//21 24//24 23//23
f 23//23 24//24 26//26
f 23//23 26//26 25//25
f 25//25 26//26 28//28
f 25//25 28//28 27//27
f 27//27 28//28 30//30
f 27//27 30//30 29//29
f 29//29 30//30 32//32
f 29//29 32//32 31//31
f 31//31 32//32 34//34
f 31//31 34//34 33//33
f 33//33 34//34 36//36
f 33//33 36//36 35//35
f 35//35 36//36 38//38
f 35//35 38//38 37//37
f 37//37 38//38 40//40
f 37//37 40//40 39//39
f 39//39 40//40 2//2
f 39//39 2//2 1//1
f 1//1 3//3 5//5
f 1//1 5//5 7//7
f 1//1 7//7 9//9
f 1//1 9//9 11//11
f 1//1 11//11 13//13
f 1//1 13//13 15//15
f 1//1 15//15 17//17
f 1//1 17//17 19//19
f 1//1 19//19 21//21
f 1//1 21//21 23//23
f 1//1 23//23 25//25
f 1//1 25//25 27//27
f 1//1 27//27 29//29
f 1//1 29//29 31//31
f 1//1 31//31 33//33
f 1//1 33//33 35//35
f 1//1 35//35 37//37
f 1//1 37//37 39//39
f 40//40 38//38 36//36
f 40//40 36//36 34//34
f 40//40 34//34 32//32
f 40//40 32//32 30//30
f 40//40 30//30 28//28
f 40//40 28//28 26//26
f 40//40 26//26 24//24
f 40//40 24//24 22//22
f 40//40 22//22 20//20
f 40//40 20//20 18//18
f 40//40 18//18 16//16
f 40//40 16//16 14//14
f 40//40 14//14 12//12
f 40//40 12//12 10//10
f 40//40 10//10 8//8
f 40//40 8//8 6//6
f 40//40 6//6 4//4
f 40//40 4//4 2//2
# 76 faces, 0 coords texture

# End of File
